<svg xmlns="http://www.w3.org/2000/svg" viewBox="0 0 280 80" width="100%" height="100%">
  <!-- SENAI Text in Official Blue -->
  <g transform="skewX(-12)">
    <!-- S -->
    <path d="M 46,28 C 42,20 34,18 24,18 C 12,18 4,24 4,33 C 4,44 14,47 26,50 C 36,52 40,55 40,60 C 40,66 32,69 22,69 C 10,69 3,63 1,52 L 14,50 C 15,56 19,59 24,59 C 28,59 31,57 31,53 C 31,44 20,41 9,38 C 1,35 -3,28 -3,20 C -3,10 6,7 20,7 C 32,7 41,12 44,22 Z" fill="#004587" transform="translate(10, 0)" />

    <!-- E -->
    <path d="M 68,9 L 102,9 L 100,19 L 80,19 L 78,33 L 96,33 L 94,43 L 76,43 L 74,59 L 96,59 L 94,69 L 60,69 Z" fill="#004587" />

    <!-- N -->
    <path d="M 108,9 L 122,9 L 140,49 L 140,9 L 152,9 L 144,69 L 130,69 L 112,28 L 112,69 L 100,69 Z" fill="#004587" />

    <!-- A -->
    <path d="M 166,9 L 180,9 L 198,69 L 184,69 L 180,55 L 164,55 L 160,69 L 148,69 Z M 172,25 L 166,45 L 178,45 Z" fill="#004587" />

    <!-- I stem (Blue) -->
    <path d="M 206,26 L 218,26 L 210,69 L 198,69 Z" fill="#004587" />

    <!-- I dot / accent (Official SENAI Orange) -->
    <polygon points="214,8 226,8 222,20 210,20" fill="#F37021" />
  </g>
</svg>
